PathFileType	4	(X/Y/Z)	/Users/itak/Documents/Research/Walk-IL/dataset/trc/00329_00011.trc
DataRate	CameraRate	NumFrames	NumMarkers	Units	OrigDataRate	OrigDataStartFrame	OrigNumFrames
100.000000	100.000000	4	53	mm	100.000000	342	548
Frame#	Time	RPSI			LPSI			L3			STRN			T10			C7			CLAV			RBAK			LBAK			LSHO			LUPA			LAEL			LAOL			LWTS			LWPS			LFRA			LIFD			LHPS			LHTS			RSHO			RUPA			RAEL			RAOL			RWTS			RWPS			RFRA			RIFD			RHTS			RHPS			RBHD			LFHD			RFHD			LBHD			LHIP			RHIP			RASI			LASI			LKNE			LTHI			LANK			LTIP			LTOE			LMT5			LHEE			RKNE			RTHI			RANK			RTIP			RTOE			RMT1			RMT5			RHEE			LMT1			
		X1	Y1	Z1	X2	Y2	Z2	X3	Y3	Z3	X4	Y4	Z4	X5	Y5	Z5	X6	Y6	Z6	X7	Y7	Z7	X8	Y8	Z8	X9	Y9	Z9	X10	Y10	Z10	X11	Y11	Z11	X12	Y12	Z12	X13	Y13	Z13	X14	Y14	Z14	X15	Y15	Z15	X16	Y16	Z16	X17	Y17	Z17	X18	Y18	Z18	X19	Y19	Z19	X20	Y20	Z20	X21	Y21	Z21	X22	Y22	Z22	X23	Y23	Z23	X24	Y24	Z24	X25	Y25	Z25	X26	Y26	Z26	X27	Y27	Z27	X28	Y28	Z28	X29	Y29	Z29	X30	Y30	Z30	X31	Y31	Z31	X32	Y32	Z32	X33	Y33	Z33	X34	Y34	Z34	X35	Y35	Z35	X36	Y36	Z36	X37	Y37	Z37	X38	Y38	Z38	X39	Y39	Z39	X40	Y40	Z40	X41	Y41	Z41	X42	Y42	Z42	X43	Y43	Z43	X44	Y44	Z44	X45	Y45	Z45	X46	Y46	Z46	X47	Y47	Z47	X48	Y48	Z48	X49	Y49	Z49	X50	Y50	Z50	X51	Y51	Z51	X52	Y52	Z52	X53	Y53	Z53	

343	3.42	-507.0737915039062	956.5025024414062	186.2745819091797	-511.26806640625	966.3609619140625	55.43587112426758	-507.8001403808594	1036.912963867188	118.5406188964844	-250.6602020263672	1192.253540039062	98.50780487060547	-498.8326416015625	1156.412719726562	101.7505798339844	-430.0244445800781	1397.998168945312	79.19738006591797	-282.4363403320312	1319.844970703125	90.12794494628906	-496.7468566894531	1269.30908203125	149.9076843261719	-440.2215576171875	1359.425415039062	-21.74552917480469	-350.2568359375	1365.215209960938	-74.78864288330078	-370.8837890625	1245.592895507812	-141.9377746582031	-347.7789611816406	1041.334106445312	-153.9764099121094	-419.4442138671875	1026.748657226562	-109.6903381347656	-236.8504333496094	815.8762817382812	-81.42675018310547	-264.5771484375	795.079833984375	-141.2797241210938	-323.4645690917969	937.4713745117188	-154.7918090820312	-206.5528411865234	658.8247680664062	-64.1270751953125	-256.5337524414062	725.72998046875	-130.6802825927734	-210.2377319335938	739.8115234375	-89.80063629150391	-375.5476684570312	1379.714233398438	243.5521850585938	-396.3206787109375	1317.78515625	309.9120178222656	-427.3631896972656	1052.934814453125	353.5132141113281	-461.1221313476562	1044.818481445312	264.2595520019531	-329.7001953125	818.4996948242188	330.1885986328125	-374.0413513183594	807.5626831054688	393.5216674804688	-410.2663269042969	984.0527954101562	368.1581726074219	-325.9714965820312	645.8598022460938	348.1756286621094	-308.2117919921875	716.7039794921875	352.8676452636719	-362.1366271972656	722.3497314453125	395.697021484375	-385.9006958007812	1587.775512695312	159.3690185546875	-214.4583435058594	1605.909912109375	41.54093170166016	-225.9702606201172	1610.1044921875	142.3723907470703	-396.7915649414062	1575.8779296875	14.78126621246338	-433.5348815917969	910.876708984375	-55.95235824584961	-416.9804077148438	905.6492919921875	286.8499755859375	-316.1522216796875	938.5626220703125	236.8782348632812	-306.9648742675781	930.5145263671875	-2.321561336517334	-408.1098022460938	447.9018859863281	-19.54390716552734	-402.6099853515625	590.5275268554688	-37.2503547668457	-568.5818481445312	48.18951797485352	26.06461524963379	-488.6148071289062	238.4824066162109	-5.851251125335693	-366.4032287597656	45.7759895324707	93.86762237548828	-441.6705627441406	50.15983963012695	17.12175941467285	-606.7086791992188	49.79676055908203	92.78583526611328	-178.0757751464844	498.7086791992188	266.4899291992188	-278.0126342773438	731.69677734375	299.5454711914062	-168.3108825683594	73.4144287109375	269.8229064941406	-148.858154296875	383.8561096191406	265.1199951171875	24.75527763366699	79.16823577880859	219.5167694091797	-31.37151718139648	72.86766815185547	177.2276916503906	-67.33822631835938	60.633056640625	287.2111206054688	-220.1987457275391	74.97248840332031	223.4828186035156	-435.2245178222656	31.1568489074707	130.9141693115234	
344	3.43	-513.52587890625	958.7610473632812	186.2249908447266	-518.5302734375	968.1756591796875	55.41127014160156	-514.5239868164062	1038.891479492188	118.3013458251953	-257.5518188476562	1194.246948242188	97.82276916503906	-505.7807006835938	1158.258178710938	101.2196731567383	-437.2009887695312	1399.890625	78.85097503662109	-289.4917907714844	1321.812133789062	89.64279937744141	-503.7413940429688	1271.153076171875	149.3448486328125	-447.405517578125	1361.462768554688	-22.15940284729004	-357.4349670410156	1367.462890625	-75.16938781738281	-378.0740661621094	1247.966918945312	-142.4976348876953	-355.9763488769531	1043.619506835938	-154.3396453857422	-427.8714294433594	1029.5478515625	-110.2654571533203	-248.2473297119141	816.146240234375	-82.54621124267578	-275.9615478515625	796.1945190429688	-142.6549835205078	-332.8333740234375	939.5035400390625	-155.5116271972656	-220.45166015625	658.6429443359375	-65.94522857666016	-269.1448669433594	726.6659545898438	-132.3525543212891	-222.7171325683594	739.7749633789062	-91.27399444580078	-382.7105712890625	1381.499755859375	243.1292114257812	-403.662841796875	1319.441650390625	309.3313598632812	-435.6026000976562	1054.38525390625	351.3709716796875	-469.3624877929688	1046.999755859375	262.0853881835938	-338.1105041503906	820.0550537109375	326.2046813964844	-382.3440246582031	808.533203125	389.467529296875	-418.6745300292969	985.3052368164062	365.5325317382812	-334.0905456542969	647.3932495117188	342.3856201171875	-316.5343017578125	718.0570678710938	347.6603088378906	-370.3843078613281	723.2437133789062	390.6985168457031	-393.0860595703125	1589.816650390625	158.9038696289062	-221.6626739501953	1607.588500976562	40.95923614501953	-233.1670379638672	1611.95166015625	141.8755950927734	-404.0608825683594	1577.781005859375	14.34696483612061	-441.2658081054688	912.3565063476562	-56.16801071166992	-423.2856750488281	907.9741821289062	286.1344604492188	-322.5154724121094	940.660888671875	235.6794891357422	-314.57275390625	932.260009765625	-3.467762470245361	-413.729248046875	449.4126281738281	-19.78760528564453	-409.2407531738281	592.0026245117188	-37.38406372070312	-568.6703491210938	48.07487106323242	26.15475273132324	-491.4635620117188	239.1265563964844	-5.778930187225342	-366.4613647460938	45.84488677978516	93.89084625244141	-441.69189453125	50.19813919067383	17.17889785766602	-606.80322265625	49.38657760620117	92.87928009033203	-185.3691711425781	500.3083190917969	265.0749816894531	-283.9459838867188	733.9827270507812	298.0555725097656	-185.6354675292969	74.77710723876953	269.5513916015625	-159.3218231201172	384.8804016113281	264.5128784179688	7.965151309967041	79.71092987060547	221.4370422363281	-47.6275520324707	73.18843078613281	178.3757476806641	-84.99544525146484	61.68000411987305	288.0320129394531	-237.1238555908203	76.77711486816406	222.5626220703125	-435.2404479980469	31.12584686279297	130.9459838867188	
345	3.44	-519.8303833007812	961.0969848632812	186.2459869384766	-525.650634765625	970.0557861328125	55.50496292114258	-521.097412109375	1040.890014648438	118.1240921020508	-264.3649597167969	1196.23388671875	97.09471893310547	-512.626708984375	1160.099243164062	100.7667617797852	-444.2944946289062	1401.775268554688	78.59862518310547	-296.4348754882812	1323.788818359375	89.13589477539062	-510.6087341308594	1272.987182617188	148.8949279785156	-454.5820007324219	1363.50927734375	-22.48966026306152	-364.6387329101562	1369.734008789062	-75.49873352050781	-385.19921875	1250.365478515625	-143.0137023925781	-364.0311279296875	1045.9482421875	-154.5711517333984	-436.1819763183594	1032.400390625	-110.7033920288086	-259.7514343261719	816.2771606445312	-83.70174407958984	-287.4502868652344	797.2969360351562	-144.0788879394531	-342.1139831542969	941.592041015625	-156.1309661865234	-234.7866973876953	658.3012084960938	-67.95658111572266	-282.0073852539062	727.5977172851562	-134.1645965576172	-235.4283142089844	739.6175537109375	-92.84671020507812	-389.7013549804688	1383.283081054688	242.7431640625	-410.7824096679688	1321.137573242188	308.8224792480469	-443.5870971679688	1055.906860351562	349.3426818847656	-477.4435424804688	1049.220581054688	260.0881652832031	-346.4010925292969	821.5940551757812	322.3204956054688	-390.4329223632812	809.5697631835938	385.5766906738281	-426.8049926757812	986.6239624023438	363.0344848632812	-342.2511596679688	648.9495239257812	336.6637878417969	-324.8129272460938	719.3174438476562	342.4513549804688	-378.5026550292969	724.228759765625	385.8405456542969	-400.2219848632812	1591.8017578125	158.5148468017578	-228.8077087402344	1609.28564453125	40.45913696289062	-240.313720703125	1613.755004882812	141.4493255615234	-411.2800903320312	1579.699951171875	13.98678970336914	-448.936279296875	913.7991333007812	-56.26391983032227	-429.4943237304688	910.3056640625	285.3547973632812	-328.7059020996094	942.7879638671875	234.5068969726562	-322.1583862304688	933.9332275390625	-4.570559978485107	-419.3151245117188	450.87841796875	-19.96744155883789	-415.8534240722656	593.4157104492188	-37.423583984375	-568.7525024414062	47.99858093261719	26.24898529052734	-494.3096313476562	239.7788696289062	-5.693264961242676	-366.510986328125	45.91926574707031	93.91355133056641	-441.7090454101562	50.24455642700195	17.2248477935791	-606.9008178710938	49.0529670715332	92.97022247314453	-192.7048034667969	501.8289794921875	263.6925659179688	-289.7007446289062	736.3311767578125	296.3814392089844	-203.8348388671875	76.26262664794922	269.4795837402344	-170.0119171142578	385.783447265625	263.8993530273438	-9.904441833496094	79.83418273925781	222.8013305664062	-65.12749481201172	73.20657348632812	179.1857299804688	-103.4870147705078	62.57746124267578	288.6761169433594	-255.0578002929688	78.72168731689453	221.9861602783203	-435.2742309570312	31.09223365783691	130.9813995361328	
346	3.45	-526.0092163085938	963.45458984375	186.3264923095703	-532.6441040039062	971.9642333984375	55.70502090454102	-527.5486450195312	1042.869995117188	118.0173110961914	-271.127197265625	1198.175170898438	96.31634521484375	-519.3832397460938	1161.905151367188	100.4111099243164	-451.307373046875	1403.617431640625	78.44014739990234	-303.2878112792969	1325.73828125	88.594970703125	-517.360107421875	1274.7734375	148.5628967285156	-461.77392578125	1365.526000976562	-22.73498344421387	-371.8906860351562	1371.981689453125	-75.78414916992188	-392.31005859375	1252.746826171875	-143.4925537109375	-371.9999694824219	1048.265869140625	-154.7095794677734	-444.4008483886719	1035.242797851562	-111.0125427246094	-271.3245544433594	816.2802124023438	-84.89828491210938	-299.0123901367188	798.376220703125	-145.5472717285156	-351.3238220214844	943.698974609375	-156.6617889404297	-249.4982757568359	657.829345703125	-70.14455413818359	-295.0746459960938	728.5220336914062	-136.1014251708984	-248.3440399169922	739.34130859375	-94.50517272949219	-396.5135803222656	1385.031127929688	242.3939361572266	-417.6686401367188	1322.837890625	308.3856506347656	-451.3222961425781	1057.46484375	347.4418334960938	-485.3360900878906	1051.434326171875	258.2709045410156	-354.5460205078125	823.0894165039062	318.6050415039062	-398.3201904296875	810.633544921875	381.88671875	-434.6624755859375	987.9750366210938	360.6936950683594	-350.4557495117188	650.5003051757812	331.0220031738281	-333.0037841796875	720.4370727539062	337.3335571289062	-386.5215759277344	725.2554931640625	381.1459045410156	-407.3155822753906	1593.693359375	158.1965179443359	-235.9006042480469	1610.969848632812	40.0402946472168	-247.4156799316406	1615.472900390625	141.0918121337891	-418.4539184570312	1581.60693359375	13.69061756134033	-456.5405883789062	915.1864013671875	-56.24954986572266	-435.637939453125	912.5728149414062	284.5064392089844	-334.7431640625	944.8819580078125	233.3747406005859	-329.7138366699219	935.5121459960938	-5.618965148925781	-424.8215637207031	452.2669067382812	-20.11564826965332	-422.377685546875	594.7408447265625	-37.38663101196289	-568.8351440429688	47.94114685058594	26.33988380432129	-497.121826171875	240.4176940917969	-5.615324020385742	-366.5520629882812	45.99960327148438	93.93153381347656	-441.7252502441406	50.29568862915039	17.2555046081543	-607.0012817382812	48.76992034912109	93.05474090576172	-200.0449829101562	503.2427062988281	262.3356628417969	-295.3385925292969	738.6437377929688	294.5613098144531	-222.8292388916016	77.92482757568359	269.6279602050781	-180.8500518798828	386.5495910644531	263.2349853515625	-28.80794334411621	79.57714080810547	223.4979248046875	-83.86670684814453	72.97882843017578	179.5953521728516	-122.7208633422852	63.3696174621582	289.1087951660156	-273.9400329589844	80.85188293457031	221.8092041015625	-435.3332214355469	31.05447196960449	131.0236206054688	
